# xmcd
#
# Track frame offsets:
#	150
#	9962
#	41389
#	66302
#	81514
#	101581
#	135309
#	155199
#
# Disc length: 2780 seconds
#
# Revision: 0
# Processed by: cddbd v1.5.2PL0 Copyright (c) Steve Scherf et al.
# Submitted via: EZCDAudioConverter 3.0.8.2
#
DISCID=610ada08
DTITLE=Mortal Intention - Abglanz
DYEAR=2008
DGENRE=Black Metal
TTITLE0=Aller Anfang
TTITLE1=Abglanz
TTITLE2=Meine Verdammnis
TTITLE3=Der Dunkle Reiter
TTITLE4=Eigenart
TTITLE5=Sehend Was Nun Kommt....
TTITLE6=Bis Zur Ewigkeit
TTITLE7=Von Dem Was Blieb
EXTD=
EXTT0=
EXTT1=
EXTT2=
EXTT3=
EXTT4=
EXTT5=
EXTT6=
EXTT7=
PLAYORDER=
